<?xml version="1.0" encoding="UTF-8"?>
<svg id="Capa_1" data-name="Capa 1" xmlns="http://www.w3.org/2000/svg" viewBox="0 0 500 238">
  <defs>
    <style>
      .cls-1 {
        fill: #fff;
      }
    </style>
  </defs>
  <path class="cls-1" d="M361.63,175.4v38.22c0,8.33-7.65,18.12-15.65,20.33-19.16,3.05-39.44-.08-58.95.78-22.46-5.79-17.96-26.41-17.84-44.08.4-56.14-.35-112.61-.03-168.91,4.39-19.4,19.16-19.43,35.76-19.25,48.91.53,97.96.92,146.95.54,16.5-.13,40.23-4.84,45.08,17.34,1.74,7.94,1.28,32.03.62,40.84-.95,12.64-9.14,21-21.72,22.26l-167.47-.03c-7.59.91-7.59,11.38-.46,12.97h118.94c9.63,1.07,17.6,8.49,19.58,17.92,1.59,7.57,1.45,32.11.6,40.27-.73,6.92-4.83,14.03-10.79,17.69-1.29.79-6.17,3.1-7.4,3.1h-67.23Z"/>
  <path class="cls-1" d="M126.1,2.66c12.56-1.42,22.18,4.07,28.81,14.39l98.99,179.34c5.24,12.56.74,28.36-11.22,35.23-10.69,6.14-27.74,3.27-39.73,3.21-58.02-.3-116.28,1.23-174.48.54-11.91-.55-22.29-8.46-25.48-20-3.39-12.24,1.19-19.14,6.67-29.33,30.48-56.66,63.96-111.78,94.34-168.51,4.45-7.86,13.02-13.86,22.09-14.89Z"/>
</svg>